<mxfile host="Electron" agent="Mozilla/5.0 (Windows NT 10.0; Win64; x64) AppleWebKit/537.36 (KHTML, like Gecko) draw.io/24.7.17 Chrome/128.0.6613.36 Electron/32.0.1 Safari/537.36" version="24.7.17">
  <diagram name="Page-1" id="5yX0vM4ZjuBYKUsuWV5z">
    <mxGraphModel dx="864" dy="626" grid="1" gridSize="10" guides="1" tooltips="1" connect="1" arrows="1" fold="1" page="1" pageScale="1" pageWidth="980" pageHeight="690" math="0" shadow="0">
      <root>
        <mxCell id="0" />
        <mxCell id="1" parent="0" />
        <mxCell id="IOjKc11l0o2lsR6vN4eR-1" value="" style="endArrow=classic;html=1;rounded=0;strokeWidth=3;strokeColor=#666666;" edge="1" parent="1" source="IOjKc11l0o2lsR6vN4eR-13">
          <mxGeometry width="50" height="50" relative="1" as="geometry">
            <mxPoint x="160" y="480" as="sourcePoint" />
            <mxPoint x="600" y="480" as="targetPoint" />
          </mxGeometry>
        </mxCell>
        <mxCell id="IOjKc11l0o2lsR6vN4eR-8" value="" style="endArrow=none;html=1;rounded=0;endFill=0;strokeWidth=3;strokeColor=#666666;" edge="1" parent="1" source="IOjKc11l0o2lsR6vN4eR-9" target="IOjKc11l0o2lsR6vN4eR-7">
          <mxGeometry width="50" height="50" relative="1" as="geometry">
            <mxPoint x="160" y="480" as="sourcePoint" />
            <mxPoint x="600" y="480" as="targetPoint" />
          </mxGeometry>
        </mxCell>
        <mxCell id="IOjKc11l0o2lsR6vN4eR-14" value="" style="endArrow=none;html=1;rounded=0;endFill=0;strokeWidth=3;strokeColor=#666666;" edge="1" parent="1" target="IOjKc11l0o2lsR6vN4eR-9">
          <mxGeometry width="50" height="50" relative="1" as="geometry">
            <mxPoint x="160" y="480" as="sourcePoint" />
            <mxPoint x="360" y="480" as="targetPoint" />
          </mxGeometry>
        </mxCell>
        <mxCell id="IOjKc11l0o2lsR6vN4eR-9" value="" style="shape=waypoint;sketch=0;fillStyle=solid;size=6;pointerEvents=1;points=[];fillColor=#d5e8d4;resizable=0;rotatable=0;perimeter=centerPerimeter;snapToPoint=1;flipH=1;strokeWidth=10;strokeColor=#82b366;gradientColor=#97d077;" vertex="1" parent="1">
          <mxGeometry x="230" y="470" width="20" height="20" as="geometry" />
        </mxCell>
        <mxCell id="IOjKc11l0o2lsR6vN4eR-15" value="" style="endArrow=none;html=1;rounded=0;endFill=0;strokeWidth=3;strokeColor=#666666;" edge="1" parent="1" source="IOjKc11l0o2lsR6vN4eR-7" target="IOjKc11l0o2lsR6vN4eR-13">
          <mxGeometry width="50" height="50" relative="1" as="geometry">
            <mxPoint x="360" y="480" as="sourcePoint" />
            <mxPoint x="600" y="480" as="targetPoint" />
          </mxGeometry>
        </mxCell>
        <mxCell id="IOjKc11l0o2lsR6vN4eR-13" value="" style="shape=waypoint;sketch=0;fillStyle=solid;size=6;pointerEvents=1;points=[];fillColor=#d5e8d4;resizable=0;rotatable=0;perimeter=centerPerimeter;snapToPoint=1;flipH=1;strokeWidth=10;strokeColor=#82b366;gradientColor=#97d077;" vertex="1" parent="1">
          <mxGeometry x="510" y="470" width="20" height="20" as="geometry" />
        </mxCell>
        <mxCell id="IOjKc11l0o2lsR6vN4eR-7" value="" style="shape=waypoint;sketch=0;fillStyle=solid;size=6;pointerEvents=1;points=[];fillColor=#f8cecc;resizable=0;rotatable=0;perimeter=centerPerimeter;snapToPoint=1;flipH=1;strokeWidth=10;strokeColor=#b85450;gradientColor=#ea6b66;" vertex="1" parent="1">
          <mxGeometry x="350" y="470" width="20" height="20" as="geometry" />
        </mxCell>
        <mxCell id="IOjKc11l0o2lsR6vN4eR-16" value="check in" style="text;html=1;align=center;verticalAlign=middle;whiteSpace=wrap;rounded=0;fontFamily=consolas;fontSize=16;fontColor=#82B366;" vertex="1" parent="1">
          <mxGeometry x="190" y="500" width="100" height="30" as="geometry" />
        </mxCell>
        <mxCell id="IOjKc11l0o2lsR6vN4eR-17" value="check out" style="text;html=1;align=center;verticalAlign=middle;whiteSpace=wrap;rounded=0;fontFamily=consolas;fontSize=16;fontColor=#82B366;" vertex="1" parent="1">
          <mxGeometry x="470" y="500" width="100" height="30" as="geometry" />
        </mxCell>
        <mxCell id="IOjKc11l0o2lsR6vN4eR-18" value="latest ad" style="text;html=1;align=center;verticalAlign=middle;whiteSpace=wrap;rounded=0;fontFamily=consolas;fontSize=16;fontColor=#EA6B66;" vertex="1" parent="1">
          <mxGeometry x="310" y="500" width="100" height="30" as="geometry" />
        </mxCell>
        <mxCell id="IOjKc11l0o2lsR6vN4eR-19" value="" style="endArrow=classic;html=1;rounded=0;strokeWidth=3;strokeColor=#666666;" edge="1" parent="1" source="IOjKc11l0o2lsR6vN4eR-24">
          <mxGeometry width="50" height="50" relative="1" as="geometry">
            <mxPoint x="160" y="240" as="sourcePoint" />
            <mxPoint x="600" y="240" as="targetPoint" />
          </mxGeometry>
        </mxCell>
        <mxCell id="IOjKc11l0o2lsR6vN4eR-20" value="" style="endArrow=none;html=1;rounded=0;endFill=0;strokeWidth=3;strokeColor=#666666;" edge="1" parent="1" source="IOjKc11l0o2lsR6vN4eR-22" target="IOjKc11l0o2lsR6vN4eR-25">
          <mxGeometry width="50" height="50" relative="1" as="geometry">
            <mxPoint x="160" y="240" as="sourcePoint" />
            <mxPoint x="600" y="240" as="targetPoint" />
          </mxGeometry>
        </mxCell>
        <mxCell id="IOjKc11l0o2lsR6vN4eR-21" value="" style="endArrow=none;html=1;rounded=0;endFill=0;strokeWidth=3;strokeColor=#666666;" edge="1" parent="1" target="IOjKc11l0o2lsR6vN4eR-22">
          <mxGeometry width="50" height="50" relative="1" as="geometry">
            <mxPoint x="160" y="240" as="sourcePoint" />
            <mxPoint x="360" y="240" as="targetPoint" />
          </mxGeometry>
        </mxCell>
        <mxCell id="IOjKc11l0o2lsR6vN4eR-23" value="" style="endArrow=none;html=1;rounded=0;endFill=0;strokeWidth=3;strokeColor=#666666;" edge="1" parent="1" source="IOjKc11l0o2lsR6vN4eR-25" target="IOjKc11l0o2lsR6vN4eR-24">
          <mxGeometry width="50" height="50" relative="1" as="geometry">
            <mxPoint x="360" y="240" as="sourcePoint" />
            <mxPoint x="600" y="240" as="targetPoint" />
          </mxGeometry>
        </mxCell>
        <mxCell id="IOjKc11l0o2lsR6vN4eR-24" value="" style="shape=waypoint;sketch=0;fillStyle=solid;size=6;pointerEvents=1;points=[];fillColor=#d5e8d4;resizable=0;rotatable=0;perimeter=centerPerimeter;snapToPoint=1;flipH=1;strokeWidth=10;strokeColor=#82b366;gradientColor=#97d077;" vertex="1" parent="1">
          <mxGeometry x="470" y="230" width="20" height="20" as="geometry" />
        </mxCell>
        <mxCell id="IOjKc11l0o2lsR6vN4eR-25" value="" style="shape=waypoint;sketch=0;fillStyle=solid;size=6;pointerEvents=1;points=[];fillColor=#f8cecc;resizable=0;rotatable=0;perimeter=centerPerimeter;snapToPoint=1;flipH=1;strokeWidth=10;strokeColor=#b85450;gradientColor=#ea6b66;" vertex="1" parent="1">
          <mxGeometry x="230" y="230" width="20" height="20" as="geometry" />
        </mxCell>
        <mxCell id="IOjKc11l0o2lsR6vN4eR-26" value="check in" style="text;html=1;align=center;verticalAlign=middle;whiteSpace=wrap;rounded=0;fontFamily=consolas;fontSize=16;fontColor=#82B366;" vertex="1" parent="1">
          <mxGeometry x="280" y="260" width="100" height="30" as="geometry" />
        </mxCell>
        <mxCell id="IOjKc11l0o2lsR6vN4eR-27" value="check out" style="text;html=1;align=center;verticalAlign=middle;whiteSpace=wrap;rounded=0;fontFamily=consolas;fontSize=16;fontColor=#82B366;" vertex="1" parent="1">
          <mxGeometry x="430" y="260" width="100" height="30" as="geometry" />
        </mxCell>
        <mxCell id="IOjKc11l0o2lsR6vN4eR-28" value="latest ad" style="text;html=1;align=center;verticalAlign=middle;whiteSpace=wrap;rounded=0;fontFamily=consolas;fontSize=16;fontColor=#EA6B66;" vertex="1" parent="1">
          <mxGeometry x="190" y="260" width="100" height="30" as="geometry" />
        </mxCell>
        <mxCell id="IOjKc11l0o2lsR6vN4eR-22" value="" style="shape=waypoint;sketch=0;fillStyle=solid;size=6;pointerEvents=1;points=[];fillColor=#d5e8d4;resizable=0;rotatable=0;perimeter=centerPerimeter;snapToPoint=1;flipH=1;strokeWidth=10;strokeColor=#82b366;gradientColor=#97d077;" vertex="1" parent="1">
          <mxGeometry x="310" y="230" width="20" height="20" as="geometry" />
        </mxCell>
        <mxCell id="IOjKc11l0o2lsR6vN4eR-31" value="nghe quảng cáo&lt;br&gt;lần 1" style="text;html=1;align=center;verticalAlign=middle;whiteSpace=wrap;rounded=0;fontFamily=Aptos;fontSize=16;fontColor=#036897;" vertex="1" parent="1">
          <mxGeometry x="255" y="150" width="130" height="30" as="geometry" />
        </mxCell>
        <mxCell id="IOjKc11l0o2lsR6vN4eR-32" value="nghe quảng cáo&lt;br&gt;lần 2" style="text;html=1;align=center;verticalAlign=middle;whiteSpace=wrap;rounded=0;fontFamily=Aptos;fontSize=16;fontColor=#036897;" vertex="1" parent="1">
          <mxGeometry x="415" y="150" width="130" height="30" as="geometry" />
        </mxCell>
        <mxCell id="IOjKc11l0o2lsR6vN4eR-34" value="nghe quảng cáo&lt;br&gt;lần 1" style="text;html=1;align=center;verticalAlign=middle;whiteSpace=wrap;rounded=0;fontFamily=Aptos;fontSize=16;fontColor=#036897;" vertex="1" parent="1">
          <mxGeometry x="175" y="390" width="130" height="30" as="geometry" />
        </mxCell>
        <mxCell id="IOjKc11l0o2lsR6vN4eR-36" value="nghe quảng cáo&lt;br&gt;lần 2, 3, 4, v.v..." style="text;html=1;align=center;verticalAlign=middle;whiteSpace=wrap;rounded=0;fontFamily=Aptos;fontSize=16;fontColor=#036897;" vertex="1" parent="1">
          <mxGeometry x="327" y="390" width="130" height="30" as="geometry" />
        </mxCell>
        <mxCell id="IOjKc11l0o2lsR6vN4eR-37" value="" style="endArrow=classic;html=1;rounded=0;exitX=0.5;exitY=1;exitDx=0;exitDy=0;strokeColor=#036897;" edge="1" parent="1" source="IOjKc11l0o2lsR6vN4eR-31">
          <mxGeometry width="50" height="50" relative="1" as="geometry">
            <mxPoint x="380" y="190" as="sourcePoint" />
            <mxPoint x="320" y="220" as="targetPoint" />
          </mxGeometry>
        </mxCell>
        <mxCell id="IOjKc11l0o2lsR6vN4eR-38" value="" style="endArrow=classic;html=1;rounded=0;exitX=0.5;exitY=1;exitDx=0;exitDy=0;strokeColor=#036897;" edge="1" parent="1" source="IOjKc11l0o2lsR6vN4eR-32">
          <mxGeometry width="50" height="50" relative="1" as="geometry">
            <mxPoint x="330" y="190" as="sourcePoint" />
            <mxPoint x="480" y="220" as="targetPoint" />
          </mxGeometry>
        </mxCell>
        <mxCell id="IOjKc11l0o2lsR6vN4eR-39" value="" style="endArrow=classic;html=1;rounded=0;strokeColor=#036897;exitX=0.25;exitY=1;exitDx=0;exitDy=0;" edge="1" parent="1" source="IOjKc11l0o2lsR6vN4eR-36">
          <mxGeometry width="50" height="50" relative="1" as="geometry">
            <mxPoint x="590" y="440" as="sourcePoint" />
            <mxPoint x="360" y="460" as="targetPoint" />
          </mxGeometry>
        </mxCell>
        <mxCell id="IOjKc11l0o2lsR6vN4eR-40" value="" style="endArrow=classic;html=1;rounded=0;exitX=0.5;exitY=1;exitDx=0;exitDy=0;strokeColor=#036897;" edge="1" parent="1" source="IOjKc11l0o2lsR6vN4eR-34">
          <mxGeometry width="50" height="50" relative="1" as="geometry">
            <mxPoint x="340" y="200" as="sourcePoint" />
            <mxPoint x="240" y="460" as="targetPoint" />
          </mxGeometry>
        </mxCell>
      </root>
    </mxGraphModel>
  </diagram>
</mxfile>
